<svg xmlns="http://www.w3.org/2000/svg" viewBox="0 0 720 720">
  <rect width="720" height="720" rx="54" fill="#f6fbf5"/>
  <path d="M360 90c-70 0-112 54-112 122 0 45 18 82 42 108-48 34-73 90-73 158v151h286V478c0-68-25-124-73-158 24-26 42-63 42-108 0-68-42-122-112-122Z" fill="#d8e8d7"/>
  <path d="M287 472c20-82 49-127 73-127s53 45 73 127" fill="none" stroke="#173f2f" stroke-width="12" stroke-linecap="round"/>
  <ellipse cx="360" cy="476" rx="76" ry="55" fill="#fff" stroke="#6da278" stroke-width="10"/>
  <path d="M360 421v111M318 455c22 7 36 21 42 43M402 455c-22 7-36 21-42 43" fill="none" stroke="#6da278" stroke-width="9" stroke-linecap="round"/>
  <circle cx="360" cy="476" r="12" fill="#173f2f"/>
  <rect x="126" y="126" width="148" height="78" rx="24" fill="#fff" stroke="#d6e4d5" stroke-width="6"/><rect x="446" y="126" width="148" height="78" rx="24" fill="#fff" stroke="#d6e4d5" stroke-width="6"/>
  <path d="M274 165h55M391 165h55" stroke="#8eb48e" stroke-width="7" stroke-linecap="round"/>
</svg>
